<?xml version="1.0" encoding="UTF-8" standalone="no"?>
<svg
   version="1.1"
   width="60.845001mm"
   height="40.691002mm"
   viewBox="-2 -2 60.845002 40.691002"
   id="svg973"
   sodipodi:docname="hexpansion-Edge_Cuts.svg"
   xml:space="preserve"
   inkscape:version="1.3.2 (091e20e, 2023-11-25, custom)"
   xmlns:inkscape="http://www.inkscape.org/namespaces/inkscape"
   xmlns:sodipodi="http://sodipodi.sourceforge.net/DTD/sodipodi-0.dtd"
   xmlns="http://www.w3.org/2000/svg"
   xmlns:svg="http://www.w3.org/2000/svg"
   xmlns:rdf="http://www.w3.org/1999/02/22-rdf-syntax-ns#"
   xmlns:cc="http://creativecommons.org/ns#"
   xmlns:dc="http://purl.org/dc/elements/1.1/"><defs
     id="defs973" /><sodipodi:namedview
     id="namedview973"
     pagecolor="#ffffff"
     bordercolor="#666666"
     borderopacity="1.0"
     inkscape:showpageshadow="2"
     inkscape:pageopacity="0.0"
     inkscape:pagecheckerboard="0"
     inkscape:deskcolor="#d1d1d1"
     inkscape:document-units="mm"
     showgrid="true"
     inkscape:zoom="5.951661"
     inkscape:cx="81.993918"
     inkscape:cy="84.598233"
     inkscape:window-width="2560"
     inkscape:window-height="1377"
     inkscape:window-x="-8"
     inkscape:window-y="-8"
     inkscape:window-maximized="1"
     inkscape:current-layer="svg973"><inkscape:grid
       id="grid976"
       units="px"
       originx="-20.444445"
       originy="-13.404589"
       spacingx="0.26458334"
       spacingy="0.26458332"
       empcolor="#3f3fff"
       empopacity="0.25098039"
       color="#3f3fff"
       opacity="0.1254902"
       empspacing="5"
       dotted="false"
       gridanglex="30"
       gridanglez="30"
       visible="true" /></sodipodi:namedview><title
     id="title1">SVG Image created as hexpansion-Edge_Cuts.svg date 2024/04/21 11:47:19 </title><desc
     id="desc1">Image generated by PCBNEW </desc><g
     inkscape:groupmode="layer"
     id="layer1"
     inkscape:label="Outline"
     transform="translate(-20.444444,-13.40459)"><g
       id="g976"
       transform="translate(-77.760417,-68.249951)"><g
         style="fill:none;stroke:#d0d2cd;stroke-width:0.1;stroke-linecap:round;stroke-linejoin:round;stroke-opacity:1"
         id="g918"><circle
           cx="150"
           cy="100"
           r="2.5"
           id="circle916" /><path
           d="m 150,105 a 5,5 0 0 0 0,-10"
           id="path916" /><path
           d="M 150,105 H 132"
           id="path917" /><path
           d="m 132,95 h 18"
           id="path918" /></g><g
         style="fill:none;stroke:#d0d2cd;stroke-width:0.05;stroke-linecap:round;stroke-linejoin:round;stroke-opacity:1"
         id="g920"><path
           d="m 100.5,90.4737 15,-8.6602"
           id="path919" /><path
           d="m 132,91.3397 a 1,1 0 0 0 -0.5,-0.866"
           id="path920" /></g><g
         style="fill:none;stroke:#d0d2cd;stroke-width:0.1;stroke-linecap:round;stroke-linejoin:round;stroke-opacity:1"
         id="g921"><path
           d="M 100,93.75 A 0.25,0.25 0 0 0 100.25,94"
           id="path921" /></g><g
         style="fill:none;stroke:#d0d2cd;stroke-width:0.05;stroke-linecap:round;stroke-linejoin:round;stroke-opacity:1"
         id="g928"><path
           d="m 116.5,81.8135 a 1,1 0 0 0 -1,0"
           id="path922" /><path
           d="m 100.5,109.5263 15,8.6602"
           id="path923" /><path
           d="m 132,91.3397 v 17.3205"
           id="path924" /><path
           d="M 100,93.75 V 91.3397"
           id="path925" /><path
           d="M 100.5,90.4738 A 1,1 0 0 0 100,91.3397"
           id="path926" /><path
           d="m 100,106.25 v 2.4102"
           id="path927" /><path
           d="m 116.5,81.8135 15,8.6602"
           id="path928" /></g><g
         style="fill:none;stroke:#d0d2cd;stroke-width:0.1;stroke-linecap:round;stroke-linejoin:round;stroke-opacity:1"
         id="g929"><path
           d="M 100.25,106 A 0.25,0.25 0 0 0 100,106.25"
           id="path929" /></g><g
         style="fill:none;stroke:#d0d2cd;stroke-width:0.05;stroke-linecap:round;stroke-linejoin:round;stroke-opacity:1"
         id="g944"><path
           d="m 100,108.6602 a 1,1 0 0 0 0.5,0.8661"
           id="path930" /><path
           d="m 131.5,109.5262 a 1,1 0 0 0 0.5,-0.866"
           id="path931" /><path
           d="m 115.5,118.1865 a 1,1 0 0 0 1,0"
           id="path932" /><path
           d="m 116.5,118.1865 15,-8.6602"
           id="path933" /><path
           d="M 98.25,104.4 V 95.6"
           id="path934" /><path
           d="m 104.5,94 h -4.25"
           id="path935" /><path
           d="M 104.5,95.4 H 98.45"
           id="path936" /><path
           d="M 104.5,104.6 H 98.45"
           id="path937" /><path
           d="m 104.5,106 h -4.25"
           id="path938" /><path
           d="m 98.45,95.4 a 0.2,0.2 0 0 0 -0.2,0.2"
           id="path939" /><path
           d="m 98.25,104.4 a 0.2,0.2 0 0 0 0.2,0.2"
           id="path940" /><path
           d="M 105.2,94.7 A 0.7,0.7 0 0 0 104.5,94"
           id="path941" /><path
           d="m 105.2,105.3 a 0.7,0.7 0 0 0 -0.7,-0.7"
           id="path942" /><path
           d="m 104.5,95.4 a 0.7,0.7 0 0 0 0.7,-0.7"
           id="path943" /><path
           d="m 104.5,106 a 0.7,0.7 0 0 0 0.7,-0.7"
           id="path944" /></g><g
         style="fill:none;stroke:#d0d2cd;stroke-width:0.1;stroke-linecap:round;stroke-linejoin:round;stroke-opacity:1"
         id="g947"><circle
           cx="150"
           cy="100"
           r="2.5"
           id="circle944" /><path
           d="m 150,105 a 5,5 0 0 0 0,-10"
           id="path945" /><path
           d="M 150,105 H 132"
           id="path946" /><path
           d="m 132,95 h 18"
           id="path947" /></g><g
         style="fill:none;stroke:#d0d2cd;stroke-width:0.05;stroke-linecap:round;stroke-linejoin:round;stroke-opacity:1"
         id="g949"><path
           d="m 100.5,90.4737 15,-8.6602"
           id="path948" /><path
           d="m 132,91.3397 a 1,1 0 0 0 -0.5,-0.866"
           id="path949" /></g><g
         style="fill:none;stroke:#d0d2cd;stroke-width:0.1;stroke-linecap:round;stroke-linejoin:round;stroke-opacity:1"
         id="g950"><path
           d="M 100,93.75 A 0.25,0.25 0 0 0 100.25,94"
           id="path950" /></g><g
         style="fill:none;stroke:#d0d2cd;stroke-width:0.05;stroke-linecap:round;stroke-linejoin:round;stroke-opacity:1"
         id="g957"><path
           d="m 116.5,81.8135 a 1,1 0 0 0 -1,0"
           id="path951" /><path
           d="m 100.5,109.5263 15,8.6602"
           id="path952" /><path
           d="m 132,91.3397 v 17.3205"
           id="path953" /><path
           d="M 100,93.75 V 91.3397"
           id="path954" /><path
           d="M 100.5,90.4738 A 1,1 0 0 0 100,91.3397"
           id="path955" /><path
           d="m 100,106.25 v 2.4102"
           id="path956" /><path
           d="m 116.5,81.8135 15,8.6602"
           id="path957" /></g><g
         style="fill:none;stroke:#d0d2cd;stroke-width:0.1;stroke-linecap:round;stroke-linejoin:round;stroke-opacity:1"
         id="g958"><path
           d="M 100.25,106 A 0.25,0.25 0 0 0 100,106.25"
           id="path958" /></g><g
         style="fill:none;stroke:#d0d2cd;stroke-width:0.05;stroke-linecap:round;stroke-linejoin:round;stroke-opacity:1"
         id="g973"><path
           d="m 100,108.6602 a 1,1 0 0 0 0.5,0.8661"
           id="path959" /><path
           d="m 131.5,109.5262 a 1,1 0 0 0 0.5,-0.866"
           id="path960" /><path
           d="m 115.5,118.1865 a 1,1 0 0 0 1,0"
           id="path961" /><path
           d="m 116.5,118.1865 15,-8.6602"
           id="path962" /><path
           d="M 98.25,104.4 V 95.6"
           id="path963" /><path
           d="m 104.5,94 h -4.25"
           id="path964" /><path
           d="M 104.5,95.4 H 98.45"
           id="path965" /><path
           d="M 104.5,104.6 H 98.45"
           id="path966" /><path
           d="m 104.5,106 h -4.25"
           id="path967" /><path
           d="m 98.45,95.4 a 0.2,0.2 0 0 0 -0.2,0.2"
           id="path968" /><path
           d="m 98.25,104.4 a 0.2,0.2 0 0 0 0.2,0.2"
           id="path969" /><path
           d="M 105.2,94.7 A 0.7,0.7 0 0 0 104.5,94"
           id="path970" /><path
           d="m 105.2,105.3 a 0.7,0.7 0 0 0 -0.7,-0.7"
           id="path971" /><path
           d="m 104.5,95.4 a 0.7,0.7 0 0 0 0.7,-0.7"
           id="path972" /><path
           d="m 104.5,106 a 0.7,0.7 0 0 0 0.7,-0.7"
           id="path973" /></g></g><circle
       cx="72.219437"
       cy="31.75004"
       r="2.5"
       id="circle973"
       style="fill:none;stroke:#d0d2cd;stroke-width:0.1;stroke-linecap:round;stroke-linejoin:round;stroke-opacity:1" /><path
       d="m 72.219441,36.750049 a 5,5 0 0 0 0,-10"
       id="path973-0"
       style="fill:none;stroke:#d0d2cd;stroke-width:0.1;stroke-linecap:round;stroke-linejoin:round;stroke-opacity:1" /><path
       d="m 72.219441,36.750049 h -18"
       id="path974"
       style="fill:none;stroke:#d0d2cd;stroke-width:0.1;stroke-linecap:round;stroke-linejoin:round;stroke-opacity:1" /><path
       d="m 54.219441,26.750049 h 18"
       id="path975"
       style="fill:none;stroke:#d0d2cd;stroke-width:0.1;stroke-linecap:round;stroke-linejoin:round;stroke-opacity:1" /><path
       d="m 22.719444,22.223749 15,-8.6602"
       id="path976"
       style="fill:none;stroke:#d0d2cd;stroke-width:0.05;stroke-linecap:round;stroke-linejoin:round;stroke-opacity:1" /><path
       d="m 54.219441,23.089749 a 1,1 0 0 0 -0.5,-0.866"
       id="path977"
       style="fill:none;stroke:#d0d2cd;stroke-width:0.05;stroke-linecap:round;stroke-linejoin:round;stroke-opacity:1" /><path
       d="m 22.219444,25.500049 a 0.25,0.25 0 0 0 0.25,0.25"
       id="path978"
       style="fill:none;stroke:#d0d2cd;stroke-width:0.1;stroke-linecap:round;stroke-linejoin:round;stroke-opacity:1" /><path
       d="m 38.719444,13.563549 a 1,1 0 0 0 -1,0"
       id="path979"
       style="fill:none;stroke:#d0d2cd;stroke-width:0.05;stroke-linecap:round;stroke-linejoin:round;stroke-opacity:1" /><path
       d="m 22.719444,41.276349 15,8.6602"
       id="path980"
       style="fill:none;stroke:#d0d2cd;stroke-width:0.05;stroke-linecap:round;stroke-linejoin:round;stroke-opacity:1" /><path
       d="m 54.219441,23.089749 v 17.3205"
       id="path981"
       style="fill:none;stroke:#d0d2cd;stroke-width:0.05;stroke-linecap:round;stroke-linejoin:round;stroke-opacity:1" /><path
       d="m 22.219444,25.500049 v -2.4103"
       id="path982"
       style="fill:none;stroke:#d0d2cd;stroke-width:0.05;stroke-linecap:round;stroke-linejoin:round;stroke-opacity:1" /><path
       d="m 22.719444,22.223849 a 1,1 0 0 0 -0.5,0.8659"
       id="path983"
       style="fill:none;stroke:#d0d2cd;stroke-width:0.05;stroke-linecap:round;stroke-linejoin:round;stroke-opacity:1" /><path
       d="m 22.219444,38.000049 v 2.4102"
       id="path984"
       style="fill:none;stroke:#d0d2cd;stroke-width:0.05;stroke-linecap:round;stroke-linejoin:round;stroke-opacity:1" /><path
       d="m 38.719444,13.563549 14.999997,8.6602"
       id="path985"
       style="fill:none;stroke:#d0d2cd;stroke-width:0.05;stroke-linecap:round;stroke-linejoin:round;stroke-opacity:1" /><path
       d="m 22.469444,37.750049 a 0.25,0.25 0 0 0 -0.25,0.25"
       id="path986"
       style="fill:none;stroke:#d0d2cd;stroke-width:0.1;stroke-linecap:round;stroke-linejoin:round;stroke-opacity:1" /><path
       d="m 22.219444,40.410249 a 1,1 0 0 0 0.5,0.8661"
       id="path987"
       style="fill:none;stroke:#d0d2cd;stroke-width:0.05;stroke-linecap:round;stroke-linejoin:round;stroke-opacity:1" /><path
       d="m 53.719441,41.276249 a 1,1 0 0 0 0.5,-0.866"
       id="path988"
       style="fill:none;stroke:#d0d2cd;stroke-width:0.05;stroke-linecap:round;stroke-linejoin:round;stroke-opacity:1" /><path
       d="m 37.719444,49.936549 a 1,1 0 0 0 1,0"
       id="path989"
       style="fill:none;stroke:#d0d2cd;stroke-width:0.05;stroke-linecap:round;stroke-linejoin:round;stroke-opacity:1" /><path
       d="m 38.719444,49.936549 14.999997,-8.6602"
       id="path990"
       style="fill:none;stroke:#d0d2cd;stroke-width:0.05;stroke-linecap:round;stroke-linejoin:round;stroke-opacity:1" /><path
       d="m 20.469444,36.150049 v -8.8"
       id="path991"
       style="fill:none;stroke:#d0d2cd;stroke-width:0.05;stroke-linecap:round;stroke-linejoin:round;stroke-opacity:1" /><path
       d="m 26.719444,25.750049 h -4.25"
       id="path992"
       style="fill:none;stroke:#d0d2cd;stroke-width:0.05;stroke-linecap:round;stroke-linejoin:round;stroke-opacity:1" /><path
       d="m 26.719444,27.150049 h -6.05"
       id="path993"
       style="fill:none;stroke:#d0d2cd;stroke-width:0.05;stroke-linecap:round;stroke-linejoin:round;stroke-opacity:1" /><path
       d="m 26.719444,36.350049 h -6.05"
       id="path994"
       style="fill:none;stroke:#d0d2cd;stroke-width:0.05;stroke-linecap:round;stroke-linejoin:round;stroke-opacity:1" /><path
       d="m 26.719444,37.750049 h -4.25"
       id="path995"
       style="fill:none;stroke:#d0d2cd;stroke-width:0.05;stroke-linecap:round;stroke-linejoin:round;stroke-opacity:1" /><path
       d="m 20.669444,27.150049 a 0.2,0.2 0 0 0 -0.2,0.2"
       id="path996"
       style="fill:none;stroke:#d0d2cd;stroke-width:0.05;stroke-linecap:round;stroke-linejoin:round;stroke-opacity:1" /><path
       d="m 20.469444,36.150049 a 0.2,0.2 0 0 0 0.2,0.2"
       id="path997"
       style="fill:none;stroke:#d0d2cd;stroke-width:0.05;stroke-linecap:round;stroke-linejoin:round;stroke-opacity:1" /><path
       d="m 27.419444,26.450049 a 0.7,0.7 0 0 0 -0.7,-0.7"
       id="path998"
       style="fill:none;stroke:#d0d2cd;stroke-width:0.05;stroke-linecap:round;stroke-linejoin:round;stroke-opacity:1" /><path
       d="m 27.419444,37.050049 a 0.7,0.7 0 0 0 -0.7,-0.7"
       id="path999"
       style="fill:none;stroke:#d0d2cd;stroke-width:0.05;stroke-linecap:round;stroke-linejoin:round;stroke-opacity:1" /><path
       d="m 26.719444,27.150049 a 0.7,0.7 0 0 0 0.7,-0.7"
       id="path1000"
       style="fill:none;stroke:#d0d2cd;stroke-width:0.05;stroke-linecap:round;stroke-linejoin:round;stroke-opacity:1" /><path
       d="m 26.719444,37.750049 a 0.7,0.7 0 0 0 0.7,-0.7"
       id="path1001"
       style="fill:none;stroke:#d0d2cd;stroke-width:0.05;stroke-linecap:round;stroke-linejoin:round;stroke-opacity:1" /></g><g
     inkscape:groupmode="layer"
     id="layer3"
     inkscape:label="component_outlines"
     style="display:inline"
     transform="translate(-20.444444,-13.40459)"><path
       d="m 30.219444,25.400049 v -3.3"
       id="path921-0"
       style="fill:none;stroke:#ff26e2;stroke-width:0.05;stroke-linecap:round;stroke-linejoin:round;stroke-opacity:1" /><path
       d="m 30.219444,25.400049 h 2.5"
       id="path922-7"
       style="fill:none;stroke:#ff26e2;stroke-width:0.05;stroke-linecap:round;stroke-linejoin:round;stroke-opacity:1" /><path
       d="m 32.719444,22.100049 h -2.5"
       id="path923-3"
       style="fill:none;stroke:#ff26e2;stroke-width:0.05;stroke-linecap:round;stroke-linejoin:round;stroke-opacity:1" /><path
       d="m 32.719444,22.100049 v 3.3"
       id="path924-5"
       style="fill:none;stroke:#ff26e2;stroke-width:0.05;stroke-linecap:round;stroke-linejoin:round;stroke-opacity:1" /><path
       d="m 31.239444,25.770049 h 1.46"
       id="path925-5"
       style="fill:none;stroke:#ff26e2;stroke-width:0.05;stroke-linecap:round;stroke-linejoin:round;stroke-opacity:1" /><path
       d="m 31.239444,28.730049 v -2.96"
       id="path926-2"
       style="fill:none;stroke:#ff26e2;stroke-width:0.05;stroke-linecap:round;stroke-linejoin:round;stroke-opacity:1" /><path
       d="m 32.699444,25.770049 v 2.96"
       id="path927-5"
       style="fill:none;stroke:#ff26e2;stroke-width:0.05;stroke-linecap:round;stroke-linejoin:round;stroke-opacity:1" /><path
       d="m 32.699444,28.730049 h -1.46"
       id="path928-4"
       style="fill:none;stroke:#ff26e2;stroke-width:0.05;stroke-linecap:round;stroke-linejoin:round;stroke-opacity:1" /><path
       d="m 33.619444,26.500049 v 3.5"
       id="path929-7"
       style="fill:none;stroke:#ff26e2;stroke-width:0.05;stroke-linecap:round;stroke-linejoin:round;stroke-opacity:1" /><path
       d="m 33.619444,30.000049 h 7.7"
       id="path930-2"
       style="fill:none;stroke:#ff26e2;stroke-width:0.05;stroke-linecap:round;stroke-linejoin:round;stroke-opacity:1" /><path
       d="m 41.319444,26.500049 h -7.7"
       id="path931-2"
       style="fill:none;stroke:#ff26e2;stroke-width:0.05;stroke-linecap:round;stroke-linejoin:round;stroke-opacity:1" /><path
       d="m 41.319444,30.000049 v -3.5"
       id="path932-1"
       style="fill:none;stroke:#ff26e2;stroke-width:0.05;stroke-linecap:round;stroke-linejoin:round;stroke-opacity:1" /><path
       d="m 27.469444,28.750049 v -3.3"
       id="path937-6"
       style="fill:none;stroke:#ff26e2;stroke-width:0.05;stroke-linecap:round;stroke-linejoin:round;stroke-opacity:1" /><path
       d="m 27.469444,28.750049 h 2.5"
       id="path938-9"
       style="fill:none;stroke:#ff26e2;stroke-width:0.05;stroke-linecap:round;stroke-linejoin:round;stroke-opacity:1" /><path
       d="m 29.969444,25.450049 h -2.5"
       id="path939-8"
       style="fill:none;stroke:#ff26e2;stroke-width:0.05;stroke-linecap:round;stroke-linejoin:round;stroke-opacity:1" /><path
       d="m 29.969444,25.450049 v 3.3"
       id="path940-9"
       style="fill:none;stroke:#ff26e2;stroke-width:0.05;stroke-linecap:round;stroke-linejoin:round;stroke-opacity:1" /><path
       d="m 32.739444,24.770049 h 2.96"
       id="path953-4"
       style="fill:none;stroke:#ff26e2;stroke-width:0.05;stroke-linecap:round;stroke-linejoin:round;stroke-opacity:1" /><path
       d="m 32.739444,26.230049 v -1.46"
       id="path954-7"
       style="fill:none;stroke:#ff26e2;stroke-width:0.05;stroke-linecap:round;stroke-linejoin:round;stroke-opacity:1" /><path
       d="m 35.699444,24.770049 v 1.46"
       id="path955-6"
       style="fill:none;stroke:#ff26e2;stroke-width:0.05;stroke-linecap:round;stroke-linejoin:round;stroke-opacity:1" /><path
       d="m 35.699444,26.230049 h -2.96"
       id="path956-0"
       style="fill:none;stroke:#ff26e2;stroke-width:0.05;stroke-linecap:round;stroke-linejoin:round;stroke-opacity:1" /><path
       d="m 33.756944,31.300049 v 5.4"
       id="path957-5"
       style="fill:none;stroke:#ff26e2;stroke-width:0.05;stroke-linecap:round;stroke-linejoin:round;stroke-opacity:1" /><path
       d="m 33.756944,36.700049 h 7.4"
       id="path958-9"
       style="fill:none;stroke:#ff26e2;stroke-width:0.05;stroke-linecap:round;stroke-linejoin:round;stroke-opacity:1" /><path
       d="m 41.156944,31.300049 h -7.4"
       id="path959-0"
       style="fill:none;stroke:#ff26e2;stroke-width:0.05;stroke-linecap:round;stroke-linejoin:round;stroke-opacity:1" /><path
       d="m 41.156944,36.700049 v -5.4"
       id="path960-8"
       style="fill:none;stroke:#ff26e2;stroke-width:0.05;stroke-linecap:round;stroke-linejoin:round;stroke-opacity:1" /><path
       d="m 29.239444,29.020049 h 2.96"
       id="path961-6"
       style="fill:none;stroke:#ff26e2;stroke-width:0.05;stroke-linecap:round;stroke-linejoin:round;stroke-opacity:1" /><path
       d="m 29.239444,30.480049 v -1.46"
       id="path962-7"
       style="fill:none;stroke:#ff26e2;stroke-width:0.05;stroke-linecap:round;stroke-linejoin:round;stroke-opacity:1" /><path
       d="m 32.199444,29.020049 v 1.46"
       id="path963-5"
       style="fill:none;stroke:#ff26e2;stroke-width:0.05;stroke-linecap:round;stroke-linejoin:round;stroke-opacity:1" /><path
       d="m 32.199444,30.480049 h -2.96"
       id="path964-6"
       style="fill:none;stroke:#ff26e2;stroke-width:0.05;stroke-linecap:round;stroke-linejoin:round;stroke-opacity:1" /><path
       d="m 31.489444,35.270049 h 1.46"
       id="path965-1"
       style="fill:none;stroke:#ff26e2;stroke-width:0.05;stroke-linecap:round;stroke-linejoin:round;stroke-opacity:1" /><path
       d="m 31.489444,38.230049 v -2.96"
       id="path966-2"
       style="fill:none;stroke:#ff26e2;stroke-width:0.05;stroke-linecap:round;stroke-linejoin:round;stroke-opacity:1" /><path
       d="m 32.949444,35.270049 v 2.96"
       id="path967-8"
       style="fill:none;stroke:#ff26e2;stroke-width:0.05;stroke-linecap:round;stroke-linejoin:round;stroke-opacity:1" /><path
       d="m 32.949444,38.230049 h -1.46"
       id="path968-7"
       style="fill:none;stroke:#ff26e2;stroke-width:0.05;stroke-linecap:round;stroke-linejoin:round;stroke-opacity:1" /><path
       d="m 35.989444,24.770049 h 2.96"
       id="path969-9"
       style="fill:none;stroke:#ff26e2;stroke-width:0.05;stroke-linecap:round;stroke-linejoin:round;stroke-opacity:1" /><path
       d="m 35.989444,26.230049 v -1.46"
       id="path970-8"
       style="fill:none;stroke:#ff26e2;stroke-width:0.05;stroke-linecap:round;stroke-linejoin:round;stroke-opacity:1" /><path
       d="m 38.949444,24.770049 v 1.46"
       id="path971-1"
       style="fill:none;stroke:#ff26e2;stroke-width:0.05;stroke-linecap:round;stroke-linejoin:round;stroke-opacity:1" /><path
       d="m 38.949444,26.230049 h -2.96"
       id="path972-1"
       style="fill:none;stroke:#ff26e2;stroke-width:0.05;stroke-linecap:round;stroke-linejoin:round;stroke-opacity:1" /><path
       d="m 51.769441,31.320049 h 1.9"
       id="path917-1"
       style="fill:none;stroke:#ff26e2;stroke-width:0.05;stroke-linecap:round;stroke-linejoin:round;stroke-opacity:1" /><path
       d="m 51.769441,34.680049 v -3.36"
       id="path918-9"
       style="fill:none;stroke:#ff26e2;stroke-width:0.05;stroke-linecap:round;stroke-linejoin:round;stroke-opacity:1" /><path
       d="m 53.669441,31.320049 v 3.36"
       id="path919-7"
       style="fill:none;stroke:#ff26e2;stroke-width:0.05;stroke-linecap:round;stroke-linejoin:round;stroke-opacity:1" /><path
       d="m 53.669441,34.680049 h -1.9"
       id="path920-7"
       style="fill:none;stroke:#ff26e2;stroke-width:0.05;stroke-linecap:round;stroke-linejoin:round;stroke-opacity:1" /><path
       d="m 49.739441,35.020049 h 1.46"
       id="path933-6"
       style="fill:none;stroke:#ff26e2;stroke-width:0.05;stroke-linecap:round;stroke-linejoin:round;stroke-opacity:1" /><path
       d="m 49.739441,37.980049 v -2.96"
       id="path934-1"
       style="fill:none;stroke:#ff26e2;stroke-width:0.05;stroke-linecap:round;stroke-linejoin:round;stroke-opacity:1" /><path
       d="m 51.199441,35.020049 v 2.96"
       id="path935-0"
       style="fill:none;stroke:#ff26e2;stroke-width:0.05;stroke-linecap:round;stroke-linejoin:round;stroke-opacity:1" /><path
       d="m 51.199441,37.980049 h -1.46"
       id="path936-4"
       style="fill:none;stroke:#ff26e2;stroke-width:0.05;stroke-linecap:round;stroke-linejoin:round;stroke-opacity:1" /><path
       d="m 49.519441,31.320049 h 1.9"
       id="path941-3"
       style="fill:none;stroke:#ff26e2;stroke-width:0.05;stroke-linecap:round;stroke-linejoin:round;stroke-opacity:1" /><path
       d="m 49.519441,34.680049 v -3.36"
       id="path942-1"
       style="fill:none;stroke:#ff26e2;stroke-width:0.05;stroke-linecap:round;stroke-linejoin:round;stroke-opacity:1" /><path
       d="m 51.419441,31.320049 v 3.36"
       id="path943-7"
       style="fill:none;stroke:#ff26e2;stroke-width:0.05;stroke-linecap:round;stroke-linejoin:round;stroke-opacity:1" /><path
       d="m 51.419441,34.680049 h -1.9"
       id="path944-8"
       style="fill:none;stroke:#ff26e2;stroke-width:0.05;stroke-linecap:round;stroke-linejoin:round;stroke-opacity:1" /><path
       d="m 51.989441,35.020049 h 1.46"
       id="path945-2"
       style="fill:none;stroke:#ff26e2;stroke-width:0.05;stroke-linecap:round;stroke-linejoin:round;stroke-opacity:1" /><path
       d="m 51.989441,37.980049 v -2.96"
       id="path946-7"
       style="fill:none;stroke:#ff26e2;stroke-width:0.05;stroke-linecap:round;stroke-linejoin:round;stroke-opacity:1" /><path
       d="m 53.449441,35.020049 v 2.96"
       id="path947-8"
       style="fill:none;stroke:#ff26e2;stroke-width:0.05;stroke-linecap:round;stroke-linejoin:round;stroke-opacity:1" /><path
       d="m 53.449441,37.980049 h -1.46"
       id="path948-6"
       style="fill:none;stroke:#ff26e2;stroke-width:0.05;stroke-linecap:round;stroke-linejoin:round;stroke-opacity:1" /><circle
       cx="34.71944"
       cy="19.250057"
       r="2.45"
       id="circle932"
       style="fill:none;stroke:#ff26e2;stroke-width:0.05;stroke-linecap:round;stroke-linejoin:round;stroke-opacity:1" /><path
       d="m 23.976944,21.742849 1.4605,2.5296"
       id="path949-0"
       style="fill:none;stroke:#ff26e2;stroke-width:0.05;stroke-linecap:round;stroke-linejoin:round;stroke-opacity:1" /><path
       d="m 25.437444,24.272449 5.4993,-3.175"
       id="path950-3"
       style="fill:none;stroke:#ff26e2;stroke-width:0.05;stroke-linecap:round;stroke-linejoin:round;stroke-opacity:1" /><path
       d="m 29.476244,18.567849 -5.4993,3.175"
       id="path951-4"
       style="fill:none;stroke:#ff26e2;stroke-width:0.05;stroke-linecap:round;stroke-linejoin:round;stroke-opacity:1" /><path
       d="m 30.936744,21.097449 -1.4605,-2.5296"
       id="path952-2"
       style="fill:none;stroke:#ff26e2;stroke-width:0.05;stroke-linecap:round;stroke-linejoin:round;stroke-opacity:1" /><path
       style="fill:none;stroke:#ff26e2;stroke-width:0.05;stroke-linecap:round;stroke-linejoin:round;stroke-opacity:1"
       d="m 20.469444,25.750049 h 6.5 v 12 h -6.5 z"
       id="path916-0" /><circle
       cx="34.71944"
       cy="44.250038"
       r="2.45"
       id="circle972"
       style="fill:none;stroke:#ff26e2;stroke-width:0.05;stroke-linecap:round;stroke-linejoin:round;stroke-opacity:1" /></g><metadata
     id="metadata976"><rdf:RDF><cc:Work
         rdf:about=""><dc:title>SVG Image created as hexpansion-Edge_Cuts.svg date 2024/04/21 11:47:19 </dc:title></cc:Work></rdf:RDF></metadata></svg>
